<?xml version="1.0" encoding="UTF-8"?>
<svg id="Layer_1" data-name="Layer 1" xmlns="http://www.w3.org/2000/svg" viewBox="0 0 2000 501.6">
  <defs>
    <style>
      .cls-1 {
        fill: #fff;
      }
    </style>
  </defs>
  <g>
    <polygon points="372.82 279.81 496.03 279.81 496.03 209.07 372.82 209.07 372.82 69.95 519.08 69.95 519.08 0 280.6 0 280.6 501.6 525.45 501.6 525.45 431.65 372.82 431.65 372.82 279.81"/>
    <polygon points="847.39 0 748.81 0 695.55 165.34 642.29 0 539.75 0 644.68 245.63 534.18 501.6 631.96 501.6 695.55 325.92 758.35 501.6 860.1 501.6 745.63 245.63 847.39 0"/>
    <polygon points="1088.23 0 988.08 249.6 1087.44 501.6 1186.02 501.6 1083.47 249.6 1186.81 0 1088.23 0"/>
    <rect x="892.68" width="91.42" height="501.6"/>
    <path d="M1403.82,0h-96.98c-30.21,0-52.21,6.89-65.98,20.67-13.79,13.79-20.67,33.12-20.67,58.03v344.21c0,24.92,6.89,44.25,20.67,58.03,13.77,13.79,35.77,20.67,65.98,20.67h96.98c30.73,0,52.86-6.88,66.37-20.67,13.52-13.78,20.27-33.12,20.27-58.03V78.69c0-24.9-6.75-44.24-20.27-58.03-13.52-13.77-35.65-20.67-66.37-20.67ZM1399.05,308.43v101.75c0,7.95-1.46,13.52-4.37,16.69-2.92,3.18-8.88,4.77-17.89,4.77h-42.13c-9.02,0-15.11-1.59-18.28-4.77-3.18-3.18-4.77-8.75-4.77-16.69V91.42c0-8.47,1.59-14.18,4.77-17.09,3.18-2.9,9.26-4.37,18.28-4.37h42.13c9.01,0,14.97,1.47,17.89,4.37,2.91,2.92,4.37,8.62,4.37,17.09v217.01Z"/>
    <path d="M1817.17,20.67c-13.79-13.77-35.77-20.67-65.98-20.67h-190.78v501.6h190.78c30.21,0,52.19-6.88,65.98-20.67s20.67-33.12,20.67-58.03V78.69c0-24.9-6.89-44.24-20.67-58.03ZM1745.63,193.96v219.41c0,8.48-1.47,14.18-4.37,17.09s-8.88,4.37-17.89,4.37h-71.54V66.77h71.54c9.01,0,14.97,1.47,17.89,4.37,2.9,2.92,4.37,8.62,4.37,17.09v105.72Z"/>
    <g>
      <rect x="92.21" width="151.04" height="69.95"/>
      <polygon points="0 69.95 0 501.6 92.21 501.6 92.21 289.35 215.42 289.35 215.42 222.58 92.21 222.58 92.21 69.95 0 69.95"/>
    </g>
  </g>
  <rect class="cls-1" x="1907.79" y="431.65" width="92.21" height="69.95"/>
</svg>